<?xml version="1.0" encoding="UTF-8"?>
<svg width="22px" height="22px" viewBox="0 0 22 22" version="1.1" xmlns="http://www.w3.org/2000/svg" xmlns:xlink="http://www.w3.org/1999/xlink">
    <title>rar</title>
    <g id="文件格式图" stroke="none" stroke-width="1" fill="none" fill-rule="evenodd">
        <path d="M15.9707063,0 L22.0000239,6.06837864 L22.0000239,20.1667642 C22.0000239,21.1792058 21.1792038,22.0000259 20.1667622,22.0000259 L20.1667622,22.0000259 L4.58337491,22.0000259 C3.57082373,22.0000259 2.75000364,21.1792058 2.75000364,20.1667642 L2.75000364,20.1667642 L2.75000364,17.8750232 L0.916741933,17.8750232 L0.916741933,17.8750232 L0.809732997,17.8688564 C0.353855445,17.815907 1.13686838e-13,17.4284724 1.13686838e-13,16.9583913 L1.13686838e-13,16.9583913 L1.13686838e-13,9.16664153 L1.13686838e-13,9.16664153 L0.00616686223,9.05974299 C0.0591162786,8.6038669 0.446550805,8.25000962 0.916631933,8.2500096 L0.916631933,8.2500096 L2.75000325,8.2500096 L2.75000325,1.83337127 C2.75000325,0.820820096 3.57082334,0 4.58337452,0 L4.58337452,0 L15.9707063,0 Z M15.398258,1.3750008 L4.58337629,1.3750008 C4.33022604,1.3750008 4.12500662,1.58021979 4.12500662,1.83337047 L4.12500662,1.83337047 L4.12500662,8.25000873 L17.8750226,8.25000873 L17.8750226,8.25000873 L17.9820312,8.25617558 C18.4379073,8.309125 18.7917646,8.69655952 18.7917646,9.16664065 L18.7917646,9.16664065 L18.7917646,16.9582806 L18.7917646,16.9582806 L18.785585,17.0653984 C18.7325813,17.5212679 18.3451042,17.8750772 17.8750231,17.8750208 L17.8750231,17.8750208 L4.12500662,17.8750208 L4.12500662,20.1667617 C4.12500662,20.4198695 4.33026897,20.6250219 4.58337669,20.6250219 L4.58337669,20.6250219 L20.1667639,20.6250219 L20.1667639,20.6250219 L20.2491408,20.6176387 C20.4629392,20.578837 20.6251431,20.3917311 20.6251431,20.1667617 L20.6251431,20.1667617 L20.6251431,6.63476692 L20.4083333,6.4166358 L17.6898907,6.4166358 C16.5265298,6.4166358 15.5833882,5.47349428 15.5833882,4.31013335 L15.5833882,4.31013335 L15.5833882,1.56101101 L15.398258,1.3750008 Z M3.444,10 L1.5,10 L1.5,16.246 L2.679,16.246 L2.679,13.888 L3.489,13.888 L5.046,16.246 L7.373,16.246 L7.967,14.59 L10.577,14.59 L11.153,16.246 L12.404,16.246 L10.082,10 L8.498,10 L6.251,15.995 L4.641,13.753 L4.79099414,13.7070728 C5.51477344,13.4584961 5.847,12.9221875 5.847,11.935 C5.847,10.522 5.136,10 3.444,10 L3.444,10 Z M14.731,10 L12.787,10 L12.787,16.246 L13.966,16.246 L13.966,13.888 L14.776,13.888 L16.333,16.246 L17.719,16.246 L15.928,13.753 C16.756,13.528 17.134,12.988 17.134,11.935 C17.134,10.522 16.423,10 14.731,10 Z M9.335,11.053 L10.226,13.6 L8.318,13.6 L9.227,11.053 L9.335,11.053 Z M3.282,10.954 C4.281,10.954 4.668,11.125 4.668,11.935 C4.668,12.826 4.281,12.988 3.282,12.988 L3.282,12.988 L2.679,12.988 L2.679,10.954 Z M14.569,10.954 C15.568,10.954 15.955,11.125 15.955,11.935 C15.955,12.826 15.568,12.988 14.569,12.988 L13.966,12.988 L13.966,10.954 L14.569,10.954 Z" id="rar" fill="#8362FF" fill-rule="nonzero"></path>
    </g>
</svg>