<?xml version="1.0" standalone="no"?>
<!DOCTYPE svg PUBLIC "-//W3C//DTD SVG 1.1//EN" "http://www.w3.org/Graphics/SVG/1.1/DTD/svg11.dtd">
<svg t="1616119785389" class="icon" viewBox="0 0 1024 1024" version="1.1" xmlns="http://www.w3.org/2000/svg" p-id="9362" xmlns:xlink="http://www.w3.org/1999/xlink" width="200" height="200">
    <defs>
        <style type="text/css"></style>
    </defs>
    <path d="M512 0a512 512 0 0 0-512 512c0 282.88 229.12 512 512 512s512-229.12 512-512a512 512 0 0 0-512-512z m309.696 390.4l-343.552 343.488a45.888 45.888 0 0 1-65.088 0L244.48 565.44a45.888 45.888 0 0 1 0-65.088 45.888 45.888 0 0 1 65.088 0l135.936 135.936 310.848-310.912a45.888 45.888 0 0 1 65.088 0 45.76 45.76 0 0 1 0.256 64.96z" p-id="9363" fill="#1677FF"></path>
</svg>